<svg version="1.1" xmlns="http://www.w3.org/2000/svg" xmlns:xlink="http://www.w3.org/1999/xlink" width="114.72178" height="101.67587" viewBox="0,0,114.72178,101.67587"><g transform="translate(-177.79298,-109.94832)"><g data-paper-data="{&quot;isPaintingLayer&quot;:true}" fill="#ffffff" fill-rule="nonzero" stroke-width="0" stroke-linejoin="miter" stroke-miterlimit="10" stroke-dasharray="" stroke-dashoffset="0" style="mix-blend-mode: normal"><path d="M177.79298,155.6761l5.2029,-8.38017c0,0 1.32259,-5.87302 4.87674,-10.1601c3.55414,-4.28708 4.94177,-3.62632 7.19048,-4.39562c2.24871,-0.7693 14.5014,-11.07387 24.1574,-8.497c8.24439,2.20016 9.02533,9.75576 7.09397,17.87938c-1.31294,5.52245 -11.42036,13.03106 -13.74756,17.57449c-2.55681,4.99169 1.15079,6.56209 4.4398,6.33022c12.07287,-0.85112 3.77332,-14.12996 14.97583,-23.62035c10.55422,-8.94117 31.69408,-12.19309 31.69408,-12.19309l-12.69395,37.55684h-62.33323c0,0 0.88012,-5.71253 6.66039,-10.34452c5.47004,-4.38338 14.33855,-8.10624 19.78506,-14.31049c7.70574,-8.77778 0.37658,-14.31677 -3.66954,-12.87723c-12.50926,4.45058 -10.13859,9.73524 -17.50649,15.59355c-7.8684,6.25626 -16.12588,9.84408 -16.12588,9.84408z" stroke="#1b0069" stroke-linecap="round"/><path d="M277.6669,170.68708h-88.56098c0,0 8.07142,12.15145 15.53335,17.32858c7.46193,5.17712 36.75537,12.65187 25.76929,11.3274c-9.80416,-1.18198 -15.51301,12.28113 -15.51301,12.28113h40.72165c0,0 -1.77885,-8.5663 2.80474,-12.26173c6.19618,-4.99556 19.24496,-28.67538 19.24496,-28.67538z" stroke="#000000" stroke-linecap="round"/><path d="M265.26061,168.71508v-58.76676h27.25415v58.76676z" stroke="none" stroke-linecap="butt"/></g></g></svg>